<svg width="180" height="180" viewBox="0 0 180 180" fill="none" xmlns="http://www.w3.org/2000/svg">
<path d="M160.5 157C160.5 157.513 160.257 158.167 159.467 158.972C158.672 159.782 157.422 160.635 155.679 161.493C152.2 163.207 147.069 164.792 140.606 166.138C127.704 168.826 109.811 170.5 90 170.5C70.1886 170.5 52.296 168.826 39.3942 166.138C32.931 164.792 27.7999 163.207 24.3209 161.493C22.5785 160.635 21.3282 159.782 20.5329 158.972C19.7425 158.167 19.5 157.513 19.5 157C19.5 156.487 19.7425 155.833 20.5329 155.028C21.3282 154.218 22.5785 153.365 24.3209 152.507C27.7999 150.793 32.931 149.208 39.3942 147.862C52.296 145.174 70.1886 143.5 90 143.5C109.811 143.5 127.704 145.174 140.606 147.862C147.069 149.208 152.2 150.793 155.679 152.507C157.422 153.365 158.672 154.218 159.467 155.028C160.257 155.833 160.5 156.487 160.5 157Z" stroke="#5C3D32" stroke-width="3"/>
<path d="M146.5 145.5C146.5 145.966 146.304 146.538 145.695 147.23C145.078 147.932 144.1 148.68 142.719 149.441C139.957 150.96 135.862 152.377 130.672 153.585C120.317 155.995 105.937 157.5 90 157.5C74.0633 157.5 59.6828 155.995 49.3279 153.585C44.1384 152.377 40.0428 150.96 37.2811 149.441C35.8997 148.68 34.9218 147.932 34.3049 147.23C33.6965 146.538 33.5 145.966 33.5 145.5C33.5 145.034 33.6965 144.462 34.3049 143.77C34.9218 143.068 35.8997 142.32 37.2811 141.559C40.0428 140.04 44.1384 138.623 49.3279 137.415C59.6828 135.005 74.0633 133.5 90 133.5C105.937 133.5 120.317 135.005 130.672 137.415C135.862 138.623 139.957 140.04 142.719 141.559C144.1 142.32 145.078 143.068 145.695 143.77C146.304 144.462 146.5 145.034 146.5 145.5Z" stroke="#5C3D32" stroke-width="3"/>
<path d="M58 40L58 49.75V61.5C58 63.1569 59.3431 64.5 61 64.5H82C83.6569 64.5 85 65.8431 85 67.5V76M74.5 101.5H82C83.6569 101.5 85 100.157 85 98.5V76M85 76H106C107.657 76 109 77.3431 109 79V98.5C109 100.157 110.343 101.5 112 101.5H118M77 40V43C77 44.6569 78.3431 46 80 46H95.5H99.5C101.157 46 102.5 47.3431 102.5 49V55C102.5 56.6569 103.843 58 105.5 58H120C121.657 58 123 59.3431 123 61V71" stroke="#5C3D32" stroke-width="3"/>
<path d="M58 83L58 103M108 36H119.5" stroke="#5C3D32" stroke-width="3"/>
<circle cx="123" cy="36" r="4" stroke="#5C3D32" stroke-width="3"/>
<circle cx="77" cy="36" r="4" stroke="#5C3D32" stroke-width="3"/>
<circle cx="58" cy="36" r="4" stroke="#5C3D32" stroke-width="3"/>
<circle cx="123" cy="75" r="4" stroke="#5C3D32" stroke-width="3"/>
<circle cx="123" cy="101" r="4" stroke="#5C3D32" stroke-width="3"/>
<circle cx="70" cy="101" r="4" stroke="#5C3D32" stroke-width="3"/>
<circle cx="58" cy="79" r="4" stroke="#5C3D32" stroke-width="3"/>
<path d="M150.5 35.5468L152.8 40.4751L153.031 40.9693L153.525 41.2L158.453 43.5L153.525 45.8L153.031 46.0307L152.8 46.5249L150.5 51.4532L148.2 46.5249L147.969 46.0307L147.475 45.8L142.547 43.5L147.475 41.2L147.969 40.9693L148.2 40.4751L150.5 35.5468Z" stroke="#5C3D32" stroke-width="3"/>
<path d="M29.5 89.5468L31.8 94.4751L32.0307 94.9693L32.5249 95.2L37.4532 97.5L32.5249 99.8L32.0307 100.031L31.8 100.525L29.5 105.453L27.2 100.525L26.9693 100.031L26.4751 99.8L21.5468 97.5L26.4751 95.2L26.9693 94.9693L27.2 94.4751L29.5 89.5468Z" stroke="#5C3D32" stroke-width="3"/>
</svg>
