<svg width="180" height="180" viewBox="0 0 180 180" fill="none" xmlns="http://www.w3.org/2000/svg">
<path d="M39.5 101.547L41.8 106.475L42.0307 106.969L42.5249 107.2L47.4532 109.5L42.5249 111.8L42.0307 112.031L41.8 112.525L39.5 117.453L37.2 112.525L36.9693 112.031L36.4751 111.8L31.5468 109.5L36.4751 107.2L36.9693 106.969L37.2 106.475L39.5 101.547Z" stroke="#5C3D32" stroke-width="3"/>
<path d="M151.5 85.5468L153.8 90.4751L154.031 90.9693L154.525 91.2L159.453 93.5L154.525 95.8L154.031 96.0307L153.8 96.5249L151.5 101.453L149.2 96.5249L148.969 96.0307L148.475 95.8L143.547 93.5L148.475 91.2L148.969 90.9693L149.2 90.4751L151.5 85.5468Z" stroke="#5C3D32" stroke-width="3"/>
<path d="M44.5 23.6739L46.79 28.794L47.0125 29.2916L47.5025 29.5302L52.574 32L47.5025 34.4698L47.0125 34.7084L46.79 35.206L44.5 40.3261L42.21 35.206L41.9875 34.7084L41.4975 34.4698L36.426 32L41.4975 29.5302L41.9875 29.2916L42.21 28.794L44.5 23.6739Z" stroke="#5C3D32" stroke-width="3"/>
<path d="M160.5 157C160.5 157.513 160.257 158.167 159.467 158.972C158.672 159.782 157.422 160.635 155.679 161.493C152.2 163.207 147.069 164.792 140.606 166.138C127.704 168.826 109.811 170.5 90 170.5C70.1886 170.5 52.296 168.826 39.3942 166.138C32.931 164.792 27.7999 163.207 24.3209 161.493C22.5785 160.635 21.3282 159.782 20.5329 158.972C19.7425 158.167 19.5 157.513 19.5 157C19.5 156.487 19.7425 155.833 20.5329 155.028C21.3282 154.218 22.5785 153.365 24.3209 152.507C27.7999 150.793 32.931 149.208 39.3942 147.862C52.296 145.174 70.1886 143.5 90 143.5C109.811 143.5 127.704 145.174 140.606 147.862C147.069 149.208 152.2 150.793 155.679 152.507C157.422 153.365 158.672 154.218 159.467 155.028C160.257 155.833 160.5 156.487 160.5 157Z" stroke="#5C3D32" stroke-width="3"/>
<path d="M85.4205 50.5564C100.004 49.7459 113.692 57.7224 120.297 70.9005C128.776 87.8178 119.694 108.309 101.595 113.208L75.7253 120.209C71.2633 121.417 66.6573 118.746 65.4535 114.208L58.5217 88.078C53.6622 69.7594 66.7181 51.5958 85.4205 50.5564Z" stroke="#5C3D32" stroke-width="3"/>
<path d="M90.4661 50.1064C90.8955 47.6798 90.0277 44.6277 88.5614 41.7574C87.6695 40.0113 89.3014 37.5741 91.1579 38.2049C94.9404 39.49 97.959 41.1596 101.576 44.6341C102.242 45.2731 103.251 45.4078 104.056 44.9575C107.896 42.8101 110.507 41.9132 113.84 41.018C115.243 40.6411 116.534 41.8583 116.264 43.2862C115.792 45.793 115.295 48.7996 115.258 51.9664C115.243 53.2209 116.452 54.0802 117.683 53.8361C123.675 52.6471 128.315 53.2764 131.745 54.4417C133.419 55.0103 133.148 57.1735 131.451 57.6688C129.675 58.1871 128.063 58.7325 126.737 59.344C125.325 59.9949 125.773 61.6912 127.248 62.1829C128.672 62.6578 130.01 63.2358 131.215 63.8406C132.986 64.7291 132.152 66.9753 130.171 66.9532C128.811 66.938 127.433 66.9861 126.243 67.1511C123.662 67.5091 119.794 68.1035 119.794 68.1035" stroke="#5C3D32" stroke-width="3"/>
<path d="M116 52.5C127.5 39.5 125.5 29.5 124.5 26" stroke="#5C3D32" stroke-width="3"/>
<path d="M107.624 68.7074C107.947 70.5613 107.022 73.0415 105.597 72.9224" stroke="#5C3D32" stroke-width="3" stroke-linecap="round" stroke-linejoin="round"/>
<path d="M110.325 90.8558C110.649 92.7096 108.774 95.6585 107.348 95.5394" stroke="#5C3D32" stroke-width="3" stroke-linecap="round" stroke-linejoin="round"/>
<path d="M83.1441 107.217C82.6629 109.051 80.5151 110.036 79.3433 109.091" stroke="#5C3D32" stroke-width="3" stroke-linecap="round" stroke-linejoin="round"/>
<path d="M99.0503 104.385C99.1043 105.456 98.1275 106.491 97.344 106.285" stroke="#5C3D32" stroke-width="3" stroke-linecap="round" stroke-linejoin="round"/>
<path d="M113.691 78.003C114.115 78.9338 113.577 80.3518 112.784 80.5618" stroke="#5C3D32" stroke-width="3" stroke-linecap="round" stroke-linejoin="round"/>
<path d="M114.839 97.8253C115.012 98.873 114.156 100.052 113.353 99.975" stroke="#5C3D32" stroke-width="3" stroke-linecap="round" stroke-linejoin="round"/>
<path d="M103.424 82.6051C104.102 85.4019 102.426 89.0982 99.7118 88.8713" stroke="#5C3D32" stroke-width="3" stroke-linecap="round" stroke-linejoin="round"/>
<path d="M94.1444 96.6164C94.3115 99.031 92.5485 101.8 90.4827 101.167" stroke="#5C3D32" stroke-width="3" stroke-linecap="round" stroke-linejoin="round"/>
<path d="M146.5 145.5C146.5 145.966 146.304 146.538 145.695 147.23C145.078 147.932 144.1 148.68 142.719 149.441C139.957 150.96 135.862 152.377 130.672 153.585C120.317 155.995 105.937 157.5 90 157.5C74.0633 157.5 59.6828 155.995 49.3279 153.585C44.1384 152.377 40.0428 150.96 37.2811 149.441C35.8997 148.68 34.9218 147.932 34.3049 147.23C33.6965 146.538 33.5 145.966 33.5 145.5C33.5 145.034 33.6965 144.462 34.3049 143.77C34.9218 143.068 35.8997 142.32 37.2811 141.559C40.0428 140.04 44.1384 138.623 49.3279 137.415C59.6828 135.005 74.0633 133.5 90 133.5C105.937 133.5 120.317 135.005 130.672 137.415C135.862 138.623 139.957 140.04 142.719 141.559C144.1 142.32 145.078 143.068 145.695 143.77C146.304 144.462 146.5 145.034 146.5 145.5Z" stroke="#5C3D32" stroke-width="3"/>
</svg>
