<svg width="180" height="180" viewBox="0 0 180 180" fill="none" xmlns="http://www.w3.org/2000/svg">
<path d="M12.5 93.5468L14.8 98.4751L15.0307 98.9693L15.5249 99.2L20.4532 101.5L15.5249 103.8L15.0307 104.031L14.8 104.525L12.5 109.453L10.2 104.525L9.96932 104.031L9.47509 103.8L4.54684 101.5L9.47509 99.2L9.96932 98.9693L10.2 98.4751L12.5 93.5468Z" stroke="#5C3D32" stroke-width="3"/>
<path d="M155.5 49.6739L157.79 54.794L158.013 55.2916L158.503 55.5302L163.574 58L158.503 60.4698L158.013 60.7084L157.79 61.206L155.5 66.3261L153.21 61.206L152.987 60.7084L152.497 60.4698L147.426 58L152.497 55.5302L152.987 55.2916L153.21 54.794L155.5 49.6739Z" stroke="#5C3D32" stroke-width="3"/>
<path d="M65 14.426L67.4698 19.4975L67.7084 19.9875L68.206 20.21L73.3261 22.5L68.206 24.79L67.7084 25.0125L67.4698 25.5025L65 30.574L62.5302 25.5025L62.2916 25.0125L61.794 24.79L56.6739 22.5L61.794 20.21L62.2916 19.9875L62.5302 19.4975L65 14.426Z" stroke="#5C3D32" stroke-width="3"/>
<path d="M125.5 76C125.5 77.172 124.828 78.4994 123.134 79.9064C121.449 81.3058 118.921 82.6333 115.666 83.7772C109.168 86.0601 100.094 87.5 90 87.5C79.9059 87.5 70.8318 86.0601 64.3343 83.7772C61.0787 82.6333 58.5508 81.3058 56.8661 79.9064C55.1724 78.4994 54.5 77.172 54.5 76C54.5 74.828 55.1724 73.5006 56.8661 72.0936C58.5508 70.6942 61.0787 69.3667 64.3343 68.2228C70.8318 65.9399 79.9059 64.5 90 64.5C100.094 64.5 109.168 65.9399 115.666 68.2228C118.921 69.3667 121.449 70.6942 123.134 72.0936C124.828 73.5006 125.5 74.828 125.5 76Z" stroke="#5C3D32" stroke-width="3"/>
<path d="M136.5 93C136.5 94.3717 135.608 95.9543 133.337 97.6322C131.095 99.2885 127.755 100.843 123.494 102.175C114.988 104.833 103.146 106.5 90 106.5C76.8537 106.5 65.0116 104.833 56.5063 102.175C52.2447 100.843 48.9051 99.2885 46.6634 97.6322C44.3924 95.9543 43.5 94.3717 43.5 93C43.5 91.6283 44.3924 90.0457 46.6634 88.3678C48.9051 86.7115 52.2447 85.1569 56.5063 83.8251C65.0116 81.1672 76.8537 79.5 90 79.5C103.146 79.5 114.988 81.1672 123.494 83.8251C127.755 85.1569 131.095 86.7115 133.337 88.3678C135.608 90.0457 136.5 91.6283 136.5 93Z" stroke="#5C3D32" stroke-width="3"/>
<path d="M146.5 109.5C146.5 109.966 146.304 110.538 145.695 111.23C145.078 111.932 144.1 112.68 142.719 113.441C139.957 114.96 135.862 116.377 130.672 117.585C120.317 119.995 105.937 121.5 90 121.5C74.0633 121.5 59.6828 119.995 49.3279 117.585C44.1384 116.377 40.0428 114.96 37.2811 113.441C35.8997 112.68 34.9218 111.932 34.3049 111.23C33.6965 110.538 33.5 109.966 33.5 109.5C33.5 109.034 33.6965 108.462 34.3049 107.77C34.9218 107.068 35.8997 106.32 37.2811 105.559C40.0428 104.04 44.1384 102.623 49.3279 101.415C59.6828 99.0048 74.0633 97.5 90 97.5C105.937 97.5 120.317 99.0048 130.672 101.415C135.862 102.623 139.957 104.04 142.719 105.559C144.1 106.32 145.078 107.068 145.695 107.77C146.304 108.462 146.5 109.034 146.5 109.5Z" stroke="#5C3D32" stroke-width="3"/>
<path d="M160.5 157C160.5 157.513 160.257 158.167 159.467 158.972C158.672 159.782 157.422 160.635 155.679 161.493C152.2 163.207 147.069 164.792 140.606 166.138C127.704 168.826 109.811 170.5 90 170.5C70.1886 170.5 52.296 168.826 39.3942 166.138C32.931 164.792 27.7999 163.207 24.3209 161.493C22.5785 160.635 21.3282 159.782 20.5329 158.972C19.7425 158.167 19.5 157.513 19.5 157C19.5 156.487 19.7425 155.833 20.5329 155.028C21.3282 154.218 22.5785 153.365 24.3209 152.507C27.7999 150.793 32.931 149.208 39.3942 147.862C52.296 145.174 70.1886 143.5 90 143.5C109.811 143.5 127.704 145.174 140.606 147.862C147.069 149.208 152.2 150.793 155.679 152.507C157.422 153.365 158.672 154.218 159.467 155.028C160.257 155.833 160.5 156.487 160.5 157Z" stroke="#5C3D32" stroke-width="3"/>
</svg>
