<svg width="180" height="180" viewBox="0 0 180 180" fill="none" xmlns="http://www.w3.org/2000/svg">
<path d="M145.5 59.6739L147.79 64.794L148.013 65.2916L148.503 65.5302L153.574 68L148.503 70.4698L148.013 70.7084L147.79 71.206L145.5 76.3261L143.21 71.206L142.987 70.7084L142.497 70.4698L137.426 68L142.497 65.5302L142.987 65.2916L143.21 64.794L145.5 59.6739Z" stroke="#5C3D32" stroke-width="3"/>
<path d="M146.5 145.5C146.5 145.966 146.304 146.538 145.695 147.23C145.078 147.932 144.1 148.68 142.719 149.441C139.957 150.96 135.862 152.377 130.672 153.585C120.317 155.995 105.937 157.5 90 157.5C74.0633 157.5 59.6828 155.995 49.3279 153.585C44.1384 152.377 40.0428 150.96 37.2811 149.441C35.8997 148.68 34.9218 147.932 34.3049 147.23C33.6965 146.538 33.5 145.966 33.5 145.5C33.5 145.034 33.6965 144.462 34.3049 143.77C34.9218 143.068 35.8997 142.32 37.2811 141.559C40.0428 140.04 44.1384 138.623 49.3279 137.415C59.6828 135.005 74.0633 133.5 90 133.5C105.937 133.5 120.317 135.005 130.672 137.415C135.862 138.623 139.957 140.04 142.719 141.559C144.1 142.32 145.078 143.068 145.695 143.77C146.304 144.462 146.5 145.034 146.5 145.5Z" stroke="#5C3D32" stroke-width="3"/>
<path d="M160.5 157C160.5 157.513 160.257 158.167 159.467 158.972C158.672 159.782 157.422 160.635 155.679 161.493C152.2 163.207 147.069 164.792 140.606 166.138C127.704 168.826 109.811 170.5 90 170.5C70.1886 170.5 52.296 168.826 39.3942 166.138C32.931 164.792 27.7999 163.207 24.3209 161.493C22.5785 160.635 21.3282 159.782 20.5329 158.972C19.7425 158.167 19.5 157.513 19.5 157C19.5 156.487 19.7425 155.833 20.5329 155.028C21.3282 154.218 22.5785 153.365 24.3209 152.507C27.7999 150.793 32.931 149.208 39.3942 147.862C52.296 145.174 70.1886 143.5 90 143.5C109.811 143.5 127.704 145.174 140.606 147.862C147.069 149.208 152.2 150.793 155.679 152.507C157.422 153.365 158.672 154.218 159.467 155.028C160.257 155.833 160.5 156.487 160.5 157Z" stroke="#5C3D32" stroke-width="3"/>
<g clip-path="url(#clip0_1074_13395)">
<path d="M60 30.426L62.4698 35.4975L62.7084 35.9875L63.206 36.21L68.3261 38.5L63.206 40.79L62.7084 41.0125L62.4698 41.5025L60 46.574L57.5302 41.5025L57.2916 41.0125L56.794 40.79L51.6739 38.5L56.794 36.21L57.2916 35.9875L57.5302 35.4975L60 30.426Z" stroke="#5C3D32" stroke-width="3"/>
<path d="M60.25 86.31V55.7" stroke="#5C3D32" stroke-width="3" stroke-linecap="round"/>
<path d="M70.25 54.6001H103.25" stroke="#5C3D32" stroke-width="3" stroke-linecap="round"/>
<path d="M70.25 70.6001H103.25" stroke="#5C3D32" stroke-width="3" stroke-linecap="round"/>
<path d="M70.25 62.6001H94.25" stroke="#5C3D32" stroke-width="3" stroke-linecap="round"/>
<path d="M95.25 102.6H62.25C57.83 102.6 54.25 99.0201 54.25 94.6001V89.6001C54.25 87.9401 55.59 86.6001 57.25 86.6001H94.25C95.91 86.6001 97.25 87.9401 97.25 89.6001V90.6001" stroke="#5C3D32" stroke-width="3" stroke-linecap="round"/>
<path d="M76.9219 38.6001H108.272C109.912 38.6001 111.252 39.9301 111.252 41.5801V94.6001C111.252 99.0201 107.672 102.6 103.252 102.6H90.2519" stroke="#5C3D32" stroke-width="3" stroke-linecap="round"/>
<path d="M97.25 90.6001V93.0101C97.25 98.0301 100.83 102.1 105.25 102.1" stroke="#5C3D32" stroke-width="3" stroke-linecap="round"/>
</g>
<defs>
<clipPath id="clip0_1074_13395">
<rect width="64.75" height="77.1" fill="white" transform="translate(48 27)"/>
</clipPath>
</defs>
</svg>
