<svg width="180" height="180" viewBox="0 0 180 180" fill="none" xmlns="http://www.w3.org/2000/svg">
<path d="M146.5 145.5C146.5 145.966 146.304 146.538 145.695 147.23C145.078 147.932 144.1 148.68 142.719 149.441C139.957 150.96 135.862 152.377 130.672 153.585C120.317 155.995 105.937 157.5 90 157.5C74.0633 157.5 59.6828 155.995 49.3279 153.585C44.1384 152.377 40.0428 150.96 37.2811 149.441C35.8997 148.68 34.9218 147.932 34.3049 147.23C33.6965 146.538 33.5 145.966 33.5 145.5C33.5 145.034 33.6965 144.462 34.3049 143.77C34.9218 143.068 35.8997 142.32 37.2811 141.559C40.0428 140.04 44.1384 138.623 49.3279 137.415C59.6828 135.005 74.0633 133.5 90 133.5C105.937 133.5 120.317 135.005 130.672 137.415C135.862 138.623 139.957 140.04 142.719 141.559C144.1 142.32 145.078 143.068 145.695 143.77C146.304 144.462 146.5 145.034 146.5 145.5Z" stroke="#5C3D32" stroke-width="3"/>
<path d="M160.5 157C160.5 157.513 160.257 158.167 159.467 158.972C158.672 159.782 157.422 160.635 155.679 161.493C152.2 163.207 147.069 164.792 140.606 166.138C127.704 168.826 109.811 170.5 90 170.5C70.1886 170.5 52.296 168.826 39.3942 166.138C32.931 164.792 27.7999 163.207 24.3209 161.493C22.5785 160.635 21.3282 159.782 20.5329 158.972C19.7425 158.167 19.5 157.513 19.5 157C19.5 156.487 19.7425 155.833 20.5329 155.028C21.3282 154.218 22.5785 153.365 24.3209 152.507C27.7999 150.793 32.931 149.208 39.3942 147.862C52.296 145.174 70.1886 143.5 90 143.5C109.811 143.5 127.704 145.174 140.606 147.862C147.069 149.208 152.2 150.793 155.679 152.507C157.422 153.365 158.672 154.218 159.467 155.028C160.257 155.833 160.5 156.487 160.5 157Z" stroke="#5C3D32" stroke-width="3"/>
<path d="M135.5 19.6739L137.79 24.794L138.013 25.2916L138.503 25.5302L143.574 28L138.503 30.4698L138.013 30.7084L137.79 31.206L135.5 36.3261L133.21 31.206L132.987 30.7084L132.497 30.4698L127.426 28L132.497 25.5302L132.987 25.2916L133.21 24.794L135.5 19.6739Z" stroke="#5C3D32" stroke-width="3"/>
<g clip-path="url(#clip0_1074_13380)">
<path d="M62.5 43.6739L64.79 48.794L65.0125 49.2916L65.5025 49.5302L70.574 52L65.5025 54.4698L65.0125 54.7084L64.79 55.206L62.5 60.3261L60.21 55.206L59.9875 54.7084L59.4975 54.4698L54.426 52L59.4975 49.5302L59.9875 49.2916L60.21 48.794L62.5 43.6739Z" stroke="#5C3D32" stroke-width="3"/>
<path d="M78.92 51.6001H110.27C111.91 51.6001 113.25 52.9301 113.25 54.5801V99.6201C113.25 101.26 111.92 102.6 110.27 102.6H65.23C63.59 102.6 62.25 101.27 62.25 99.6201V68.7001" stroke="#5C3D32" stroke-width="3" stroke-linecap="round"/>
<path d="M72.25 67.6001H105.25" stroke="#5C3D32" stroke-width="3" stroke-linecap="round"/>
<path d="M77.7617 72.0801V62.6001" stroke="#5C3D32" stroke-width="3" stroke-linecap="round"/>
<path d="M97.7617 72.0801V62.6001" stroke="#5C3D32" stroke-width="3" stroke-linecap="round"/>
<path d="M82.7584 83.3498H82.7284L82.0884 83.7598C81.5084 84.0998 81.2184 84.2098 80.8684 84.2098C80.1584 84.2098 79.6484 83.6898 79.6484 82.9798C79.6484 82.4398 79.9684 81.9798 80.5884 81.5998L81.9484 80.7498C82.7284 80.2798 83.5284 80.0298 84.2584 80.0298C85.5484 80.0298 86.3884 80.8898 86.3884 82.2298V90.9798C86.3884 92.2298 85.7384 92.9298 84.5784 92.9298C83.4184 92.9298 82.7584 92.2198 82.7584 90.9798V83.3598V83.3498Z" fill="#5C3D32"/>
<path d="M89.8086 89.0599L92.7486 86.2099C93.7186 85.2699 94.1486 84.6599 94.1486 84.0199C94.1486 83.2699 93.5986 82.7699 92.7986 82.7699C92.1786 82.7699 91.7286 83.0399 91.2586 83.7099C90.7386 84.3999 90.3486 84.6399 89.7486 84.6399C88.9086 84.6399 88.3086 84.0699 88.3086 83.2799C88.3086 81.4999 90.4286 79.8899 92.9986 79.8899C95.5686 79.8899 97.6286 81.4899 97.6286 83.6699C97.6286 85.0199 96.9286 86.2799 95.4386 87.6399L93.1186 89.7899V89.9299H96.4386C97.4486 89.9299 98.0786 90.4799 98.0786 91.3699C98.0786 92.2599 97.4686 92.7799 96.4386 92.7799H89.9986C89.0186 92.7799 88.3486 92.1899 88.3486 91.3099C88.3486 90.6599 88.7186 90.0899 89.8086 89.0599Z" fill="#5C3D32"/>
</g>
<defs>
<clipPath id="clip0_1074_13380">
<rect width="64.75" height="64.1" fill="white" transform="translate(50 40)"/>
</clipPath>
</defs>
</svg>
