<svg width="180" height="180" viewBox="0 0 180 180" fill="none" xmlns="http://www.w3.org/2000/svg">
<path d="M160.5 157C160.5 157.513 160.257 158.167 159.467 158.972C158.672 159.782 157.422 160.635 155.679 161.493C152.2 163.207 147.069 164.792 140.606 166.138C127.704 168.826 109.811 170.5 90 170.5C70.1886 170.5 52.296 168.826 39.3942 166.138C32.931 164.792 27.7999 163.207 24.3209 161.493C22.5785 160.635 21.3282 159.782 20.5329 158.972C19.7425 158.167 19.5 157.513 19.5 157C19.5 156.487 19.7425 155.833 20.5329 155.028C21.3282 154.218 22.5785 153.365 24.3209 152.507C27.7999 150.793 32.931 149.208 39.3942 147.862C52.296 145.174 70.1886 143.5 90 143.5C109.811 143.5 127.704 145.174 140.606 147.862C147.069 149.208 152.2 150.793 155.679 152.507C157.422 153.365 158.672 154.218 159.467 155.028C160.257 155.833 160.5 156.487 160.5 157Z" stroke="#5C3D32" stroke-width="3"/>
<path d="M38.1613 68.8557C37.6112 72.8012 38.4715 76.7412 40.6923 80.4476C42.9131 84.154 46.4503 87.5531 51.0993 90.4482C55.7482 93.3433 61.4164 95.6768 67.7759 97.3138C74.1353 98.9508 81.0596 99.8586 88.148 99.9848C95.2364 100.111 102.348 99.4529 109.071 98.0487C115.773 96.6957 121.974 94.6309 127.322 91.972C132.669 89.3132 137.058 86.1125 140.237 82.5528C143.416 78.9932 145.323 75.1442 145.85 71.2258C146.377 67.3075 145.512 63.3965 143.306 59.7162L92.2804 70.0261L75.4875 42C68.7155 43.3226 62.4364 45.3702 57.0139 48.0242" stroke="#5C3D32" stroke-width="3"/>
<path d="M87.1831 47.5483L83.061 41.3677L84.309 40.5354L83.472 39.2804L83.2655 37.9031C84.7664 37.678 86.288 37.4947 87.8245 37.3535L87.9617 38.8472C89.4491 38.7105 90.9512 38.614 92.4627 38.5579L92.4071 37.059C93.9307 37.0025 95.4631 36.9865 96.999 37.0114L96.9747 38.5112C97.726 38.5233 98.4781 38.5454 99.2304 38.5775C99.9788 38.6094 100.726 38.6511 101.47 38.7026L101.574 37.2061C103.099 37.3115 104.616 37.4569 106.118 37.6416L105.935 39.1304C107.429 39.3141 108.908 39.5373 110.367 39.7991L110.632 38.3227C112.144 38.594 113.635 38.9062 115.1 39.2583L114.749 40.7168C115.479 40.8921 116.201 41.0775 116.916 41.2727C118.221 41.6294 119.494 42.0174 120.732 42.435L121.211 41.0138C123.891 41.9183 126.414 42.9607 128.742 44.1259L128.07 45.4673C129.28 46.0728 130.433 46.711 131.524 47.3791C132.457 47.9504 133.34 48.5407 134.171 49.1478L135.056 47.9365C136.947 49.3182 138.594 50.7924 139.973 52.3378L138.854 53.3365C139.022 53.5243 139.185 53.7129 139.344 53.9023L138.951 53.9733L139.218 55.4493L133.654 56.4561L133.387 54.98L127.823 55.9868L128.09 57.4628L122.526 58.4696L122.259 56.9936L116.695 58.0003L116.962 59.4764L111.398 60.4831L111.131 59.0071L105.567 60.0138L105.834 61.4899L100.27 62.4966L100.003 61.0206L98.19 61.3487L96.6752 59.0774L95.4273 59.9097L91.3052 53.729L92.5531 52.8967L88.431 46.7161L87.1831 47.5483Z" stroke="#5C3D32" stroke-width="3" stroke-dasharray="6 6"/>
<path d="M43.5 45.5468L45.8 50.4751L46.0307 50.9693L46.5249 51.2L51.4532 53.5L46.5249 55.8L46.0307 56.0307L45.8 56.5249L43.5 61.4532L41.2 56.5249L40.9693 56.0307L40.4751 55.8L35.5468 53.5L40.4751 51.2L40.9693 50.9693L41.2 50.4751L43.5 45.5468Z" stroke="#5C3D32" stroke-width="3"/>
<path d="M156.5 20.5468L158.8 25.4751L159.031 25.9693L159.525 26.2L164.453 28.5L159.525 30.8L159.031 31.0307L158.8 31.5249L156.5 36.4532L154.2 31.5249L153.969 31.0307L153.475 30.8L148.547 28.5L153.475 26.2L153.969 25.9693L154.2 25.4751L156.5 20.5468Z" stroke="#5C3D32" stroke-width="3"/>
<path d="M146.5 145.5C146.5 145.966 146.304 146.538 145.695 147.23C145.078 147.932 144.1 148.68 142.719 149.441C139.957 150.96 135.862 152.377 130.672 153.585C120.317 155.995 105.937 157.5 90 157.5C74.0633 157.5 59.6828 155.995 49.3279 153.585C44.1384 152.377 40.0428 150.96 37.2811 149.441C35.8997 148.68 34.9218 147.932 34.3049 147.23C33.6965 146.538 33.5 145.966 33.5 145.5C33.5 145.034 33.6965 144.462 34.3049 143.77C34.9218 143.068 35.8997 142.32 37.2811 141.559C40.0428 140.04 44.1384 138.623 49.3279 137.415C59.6828 135.005 74.0633 133.5 90 133.5C105.937 133.5 120.317 135.005 130.672 137.415C135.862 138.623 139.957 140.04 142.719 141.559C144.1 142.32 145.078 143.068 145.695 143.77C146.304 144.462 146.5 145.034 146.5 145.5Z" stroke="#5C3D32" stroke-width="3"/>
<path d="M38.1615 89C37.6107 92.9273 38.4721 96.849 40.696 100.538C42.9199 104.227 46.4621 107.611 51.1175 110.492C55.7728 113.374 61.4489 115.697 67.8172 117.326C74.1855 118.956 81.1195 119.859 88.2177 119.985C95.3159 120.11 102.437 119.455 109.17 118.058C115.881 116.711 122.091 114.656 127.446 112.009C132.801 109.363 137.195 106.177 140.379 102.634C143.563 99.0905 145.473 95.2594 146 91.3592" stroke="#5C3D32" stroke-width="3"/>
</svg>
