<svg width="50" height="51" viewBox="0 0 50 51" fill="none" xmlns="http://www.w3.org/2000/svg">
<path d="M29.2174 46.8824C29.2174 48.6042 27.8158 50 26.087 50C24.3581 50 22.9565 48.6042 22.9565 46.8824C22.9565 45.1606 24.3581 43.7649 26.087 43.7649C27.8158 43.7649 29.2174 45.1606 29.2174 46.8824Z" fill="#0F0F0F"/>
<path d="M43.8261 46.8824C43.8261 48.6042 42.4245 50 40.6957 50C38.9668 50 37.5652 48.6042 37.5652 46.8824C37.5652 45.1606 38.9668 43.7649 40.6957 43.7649C42.4245 43.7649 43.8261 45.1606 43.8261 46.8824Z" fill="#0F0F0F"/>
<path d="M30.2174 46.8824C30.2174 48.6042 28.8158 50 27.087 50C25.3581 50 23.9565 48.6042 23.9565 46.8824C23.9565 45.1606 25.3581 43.7648 27.087 43.7648C28.8158 43.7648 30.2174 45.1606 30.2174 46.8824Z" fill="#0F0F0F"/>
<path d="M44.8261 46.8824C44.8261 48.6042 43.4245 50 41.6957 50C39.9668 50 38.5652 48.6042 38.5652 46.8824C38.5652 45.1606 39.9668 43.7648 41.6957 43.7648C43.4245 43.7648 44.8261 45.1606 44.8261 46.8824Z" fill="#0F0F0F"/>
<path d="M30.2174 46.8824C30.2174 48.6042 28.8158 50 27.087 50C25.3581 50 23.9565 48.6042 23.9565 46.8824C23.9565 45.1606 25.3581 43.7648 27.087 43.7648C28.8158 43.7648 30.2174 45.1606 30.2174 46.8824Z" fill="#0F0F0F"/>
<path d="M44.8261 46.8824C44.8261 48.6042 43.4245 50 41.6957 50C39.9668 50 38.5652 48.6042 38.5652 46.8824C38.5652 45.1606 39.9668 43.7648 41.6957 43.7648C43.4245 43.7648 44.8261 45.1606 44.8261 46.8824Z" fill="#0F0F0F"/>
<path d="M18.7826 36.4905H45.913L48 11M16.6957 11.55H48M18.7826 42.7257H45.913M16.5 1.00003L19 43M16.6957 1.1581H0M16.6957 5.31485H0M43.8261 19.8635H20.8696M41.7391 26.0986H22.9565M19.7826 36.4905H46.913M46.913 36.4905L48.5 11.0001M46.913 36.4905L49 11M17.6957 11.55H49M18.5 43L46.913 42.7256H19.7826M1 1.15807L17.6957 1.15817L20 43L17.5 1M17.6957 5.31482H1M44.8261 19.8635H21.8696M42.7391 26.0986H23.9565M29.2174 46.8824C29.2174 48.6042 27.8158 50 26.087 50C24.3581 50 22.9565 48.6042 22.9565 46.8824C22.9565 45.1606 24.3581 43.7649 26.087 43.7649C27.8158 43.7649 29.2174 45.1606 29.2174 46.8824ZM43.8261 46.8824C43.8261 48.6042 42.4245 50 40.6957 50C38.9668 50 37.5652 48.6042 37.5652 46.8824C37.5652 45.1606 38.9668 43.7649 40.6957 43.7649C42.4245 43.7649 43.8261 45.1606 43.8261 46.8824ZM30.2174 46.8824C30.2174 48.6042 28.8158 50 27.087 50C25.3581 50 23.9565 48.6042 23.9565 46.8824C23.9565 45.1606 25.3581 43.7648 27.087 43.7648C28.8158 43.7648 30.2174 45.1606 30.2174 46.8824ZM44.8261 46.8824C44.8261 48.6042 43.4245 50 41.6957 50C39.9668 50 38.5652 48.6042 38.5652 46.8824C38.5652 45.1606 39.9668 43.7648 41.6957 43.7648C43.4245 43.7648 44.8261 45.1606 44.8261 46.8824Z" stroke="black"/>
</svg>
